<svg width="446" height="298" viewBox="0 0 446 298" fill="none" xmlns="http://www.w3.org/2000/svg">
<g clip-path="url(#clip0_7358_1429)">
<path d="M442.537 226H395.642C406.052 183.461 400.851 138.606 380.984 99.5665H414.242C415.16 99.5665 416.041 99.2022 416.69 98.5539C417.34 97.9055 417.705 97.0262 417.705 96.1093C417.705 95.1924 417.34 94.313 416.69 93.6647C416.041 93.0164 415.16 92.6521 414.242 92.6521H377.256C345.878 37.3374 286.378 0 218.152 0C172.773 0 131.259 16.5174 99.3072 43.8567H43.0368C42.1186 43.8572 41.2382 44.2216 40.5889 44.8698C39.9396 45.518 39.5746 46.3971 39.5741 47.3138C39.5746 48.2306 39.9396 49.1096 40.5889 49.7578C41.2382 50.4061 42.1186 50.7705 43.0368 50.771H91.6694C87.7859 54.4916 84.0738 58.3768 80.5333 62.4266H3.46273C2.54452 62.4271 1.66406 62.7915 1.01479 63.4397C0.365515 64.088 0.000524244 64.967 0 65.8838H0C0.000524244 66.8005 0.365515 67.6795 1.01479 68.3278C1.66406 68.976 2.54452 69.3404 3.46273 69.3409H74.7634C50.1285 100.432 35.4188 139.719 35.4188 182.44C35.3909 205.613 39.7973 228.579 48.4011 250.101H39.2773C38.3591 250.102 37.4786 250.466 36.8293 251.115C36.1801 251.763 35.8151 252.642 35.8146 253.559C35.8146 254.476 36.1794 255.355 36.8288 256.003C37.4781 256.652 38.3589 257.016 39.2773 257.016H51.3355C52.5966 259.82 53.9243 262.585 55.3186 265.313H14.3456C13.4272 265.313 12.5465 265.677 11.8971 266.326C11.2477 266.974 10.8829 267.853 10.8829 268.77C10.8829 269.687 11.2477 270.566 11.8971 271.215C12.5465 271.863 13.4272 272.227 14.3456 272.227H59.0465C63.3055 279.734 68.0921 286.93 73.3704 293.761H362.934C372.844 280.938 380.998 266.853 387.181 251.879H421.167C422.086 251.879 422.966 251.515 423.616 250.867C424.265 250.219 424.63 249.339 424.63 248.422C424.63 247.505 424.265 246.626 423.616 245.978C422.966 245.329 422.086 244.965 421.167 244.965H389.868C391.319 241.014 392.63 236.997 393.8 232.914H442.537C443.456 232.914 444.336 232.55 444.986 231.902C445.635 231.253 446 230.374 446 229.457C446 228.54 445.635 227.661 444.986 227.013C444.336 226.364 443.456 226 442.537 226Z" fill="#F9F8F8"/>
<path d="M294.954 293.76H272.816C272.816 292.994 273.121 292.259 273.664 291.717C274.206 291.175 274.942 290.871 275.709 290.87H292.057C292.825 290.87 293.561 291.175 294.104 291.717C294.647 292.259 294.952 292.994 294.952 293.76H294.954Z" fill="#F2F2F2"/>
<path d="M289.707 290.86H278.059L281.844 183.127L284.388 184.814L289.707 290.86Z" fill="#F2F2F2"/>
<path d="M293.306 293.76H271.168C271.168 292.994 271.473 292.259 272.016 291.717C272.559 291.175 273.295 290.87 274.063 290.87H290.413C291.18 290.871 291.916 291.175 292.459 291.717C293.001 292.259 293.306 292.994 293.306 293.76Z" fill="#F2F2F2"/>
<path d="M282.236 184.079L337.939 216.188L337.331 213.027C337.211 212.403 336.867 211.845 336.364 211.456L299.971 183.329C299.643 183.075 299.259 182.903 298.851 182.827C298.443 182.751 298.022 182.773 297.625 182.892L290.323 185.065C289.983 185.167 289.625 185.198 289.271 185.157C288.918 185.115 288.577 185.002 288.269 184.824L283.418 182.029L282.236 184.079Z" fill="#F2F2F2"/>
<path d="M281.056 182.037L225.354 214.147L228.395 215.198C228.999 215.407 229.659 215.389 230.251 215.148L272.831 197.75C273.217 197.592 273.56 197.345 273.832 197.028C274.103 196.711 274.295 196.334 274.392 195.929L276.149 188.54C276.232 188.193 276.385 187.866 276.598 187.58C276.812 187.293 277.082 187.053 277.391 186.875L282.237 184.081L281.056 182.037Z" fill="#F2F2F2"/>
<path d="M283.419 182.037V117.82L280.977 119.924C280.495 120.341 280.181 120.919 280.094 121.55L273.901 167.07C273.845 167.482 273.887 167.901 274.025 168.292C274.162 168.684 274.391 169.038 274.693 169.324L280.233 174.544C280.492 174.788 280.699 175.083 280.84 175.41C280.981 175.737 281.054 176.09 281.054 176.446V182.037H283.419Z" fill="#F2F2F2"/>
<path d="M287.584 290.86H276.893L280.678 183.127H283.798L287.584 290.86Z" fill="#F2F2F2"/>
<path d="M284.893 183.745C285.241 182.275 284.329 180.803 282.857 180.456C281.385 180.109 279.91 181.019 279.563 182.489C279.215 183.959 280.127 185.431 281.599 185.778C283.071 186.125 284.546 185.215 284.893 183.745Z" fill="#F2F2F2"/>
<path d="M282.05 185.458C283.429 185.458 284.547 184.342 284.547 182.965C284.547 181.588 283.429 180.472 282.05 180.472C280.671 180.472 279.553 181.588 279.553 182.965C279.553 184.342 280.671 185.458 282.05 185.458Z" fill="#F2F2F2"/>
<path d="M226.341 214.487L279.554 182.965L279.507 182.93L225.354 214.145L226.341 214.487Z" fill="#F2F2F2"/>
<path d="M287.583 290.161H276.916V290.86H287.583V290.161Z" fill="#F2F2F2"/>
<path d="M282.629 118.504L283.361 180.711L283.418 180.687V117.82L282.629 118.504Z" fill="#F2F2F2"/>
<path d="M337.74 215.162L283.793 184.913L283.785 184.972L337.938 216.188L337.74 215.162Z" fill="#F2F2F2"/>
<path d="M367.681 293.76H332.24C332.24 292.533 332.728 291.357 333.598 290.489C334.467 289.621 335.645 289.134 336.874 289.134H363.049C363.657 289.134 364.26 289.253 364.822 289.486C365.384 289.719 365.895 290.059 366.325 290.489C366.755 290.919 367.096 291.429 367.329 291.99C367.561 292.551 367.681 293.153 367.681 293.76Z" fill="#ECECEC"/>
<path d="M359.288 289.124H340.637L346.697 116.645L350.772 119.348L359.288 289.124Z" fill="#ECECEC"/>
<path d="M365.046 293.76H329.605C329.605 293.153 329.725 292.551 329.957 291.99C330.19 291.429 330.531 290.919 330.961 290.489C331.392 290.059 331.902 289.719 332.465 289.486C333.027 289.253 333.629 289.134 334.238 289.134H360.412C361.641 289.134 362.82 289.621 363.689 290.489C364.558 291.357 365.046 292.533 365.046 293.76Z" fill="#F2F2F2"/>
<path d="M347.324 118.17L436.502 169.575L435.416 163.933C435.298 163.306 434.954 162.743 434.449 162.353L375.087 116.471C374.759 116.217 374.374 116.045 373.965 115.969C373.556 115.893 373.135 115.915 372.737 116.034L359.63 119.944C359.289 120.046 358.931 120.077 358.577 120.036C358.224 119.995 357.882 119.882 357.574 119.705L349.22 114.889L347.324 118.17Z" fill="#F2F2F2"/>
<path d="M345.432 114.898L256.254 166.304L261.689 168.184C262.292 168.392 262.949 168.374 263.539 168.133L334.262 139.237L337.994 123.547L347.324 118.17L345.432 114.898Z" fill="#F2F2F2"/>
<path d="M349.213 114.899V12.0903L344.86 15.8438C344.377 16.2602 344.064 16.8385 343.979 17.4697L333.864 91.7336C333.808 92.1454 333.85 92.5646 333.988 92.9569C334.125 93.3491 334.354 93.7031 334.656 93.9897L344.597 103.364C344.856 103.608 345.063 103.903 345.205 104.23C345.347 104.557 345.42 104.91 345.42 105.266V114.893L349.213 114.899Z" fill="#F2F2F2"/>
<path d="M355.883 289.124H338.766L344.826 116.645H349.821L355.883 289.124Z" fill="#F2F2F2"/>
<path d="M351.373 118.32C352.3 116.087 351.238 113.527 349.001 112.602C346.765 111.678 344.201 112.738 343.275 114.97C342.349 117.203 343.411 119.763 345.647 120.688C347.883 121.613 350.447 120.552 351.373 118.32Z" fill="#ECECEC"/>
<path d="M350.718 117.915C351.563 115.879 350.594 113.544 348.555 112.701C346.515 111.857 344.177 112.824 343.332 114.861C342.488 116.897 343.456 119.231 345.495 120.074C347.535 120.918 349.873 119.951 350.718 117.915Z" fill="#F2F2F2"/>
<path d="M257.835 166.851L343.028 116.388L342.951 116.329L256.254 166.303L257.835 166.851Z" fill="#ECECEC"/>
<path d="M355.883 288.004H338.805V289.124H355.883V288.004Z" fill="#ECECEC"/>
<path d="M347.951 13.1867L349.125 112.777L349.214 112.741V12.0903L347.951 13.1867Z" fill="#ECECEC"/>
<path d="M436.185 167.933L349.817 119.505L349.805 119.6L436.502 169.575L436.185 167.933Z" fill="#ECECEC"/>
<path d="M104.572 141.845C104.572 130.404 95.2825 121.129 83.8239 121.129C72.3652 121.129 63.0762 130.404 63.0762 141.845V189.526C63.0762 200.967 72.3652 210.241 83.8239 210.241C95.2825 210.241 104.572 200.967 104.572 189.526V141.845Z" fill="#F2F2F2"/>
<path d="M84.957 293.853H82.6934V154.261C82.6934 154.112 82.7226 153.966 82.7795 153.828C82.8364 153.691 82.9198 153.567 83.0249 153.462C83.13 153.357 83.2547 153.274 83.392 153.217C83.5294 153.16 83.6765 153.131 83.8252 153.131C84.1254 153.131 84.4132 153.25 84.6255 153.462C84.8378 153.674 84.957 153.961 84.957 154.261V293.853Z" fill="#E4E4E4"/>
<path d="M84.9575 173.18L78.6633 162.295C78.5132 162.036 78.266 161.846 77.976 161.769C77.686 161.691 77.3769 161.731 77.1169 161.881C76.8569 162.031 76.6671 162.278 76.5894 162.568C76.5117 162.857 76.5523 163.166 76.7024 163.425L82.9966 174.31L84.9575 173.18Z" fill="#E4E4E4"/>
<path d="M84.6523 186.199L90.9465 175.314C91.0849 175.055 91.1172 174.753 91.0365 174.471C90.9559 174.189 90.7687 173.95 90.5144 173.803C90.2602 173.656 89.9588 173.614 89.6739 173.685C89.389 173.756 89.1429 173.935 88.9876 174.184L82.6934 185.069L84.6523 186.199Z" fill="#E4E4E4"/>
<path d="M163.154 100.697C163.154 86.1693 151.358 74.3926 136.807 74.3926C122.257 74.3926 110.461 86.1693 110.461 100.697V161.248C110.461 175.776 122.257 187.553 136.807 187.553C151.358 187.553 163.154 175.776 163.154 161.248V100.697Z" fill="#F2F2F2"/>
<path d="M138.244 293.727H135.371V116.465C135.371 116.084 135.522 115.719 135.792 115.45C136.061 115.181 136.426 115.029 136.808 115.029C137.189 115.029 137.554 115.181 137.824 115.45C138.093 115.719 138.244 116.084 138.244 116.465V293.727Z" fill="#E4E4E4"/>
<path d="M138.244 140.49L130.252 126.661C130.158 126.498 130.032 126.355 129.882 126.24C129.733 126.125 129.562 126.041 129.379 125.992C129.197 125.944 129.007 125.931 128.82 125.956C128.633 125.98 128.452 126.041 128.289 126.135C128.126 126.23 127.982 126.355 127.867 126.504C127.753 126.654 127.668 126.824 127.619 127.006C127.57 127.188 127.558 127.378 127.583 127.565C127.607 127.752 127.668 127.932 127.763 128.095L135.755 141.924L138.244 140.49Z" fill="#E4E4E4"/>
<path d="M137.86 157.022L145.852 143.194C145.947 143.031 146.008 142.85 146.032 142.664C146.057 142.477 146.045 142.287 145.996 142.105C145.947 141.923 145.862 141.753 145.748 141.603C145.633 141.454 145.489 141.328 145.326 141.234C145.163 141.14 144.982 141.079 144.795 141.054C144.608 141.03 144.418 141.042 144.236 141.091C144.053 141.14 143.882 141.224 143.733 141.339C143.583 141.453 143.457 141.596 143.363 141.76L135.371 155.588L137.86 157.022Z" fill="#E4E4E4"/>
<path d="M96.6237 286.019C97.8327 284.885 98.3848 283.591 97.9079 282.678C97.3143 281.55 95.3356 281.376 93.2362 282.17C93.343 281.898 93.444 281.615 93.535 281.325C94.6589 277.743 94.0158 274.353 92.1024 273.755C90.2345 273.162 87.8482 275.456 86.6887 278.891C85.729 274.958 83.2615 272.186 81.1483 272.682C79.1557 273.15 78.1802 276.35 78.8213 280.019C75.9047 278.733 73.0831 278.834 72.1927 280.384C71.2647 281.991 72.7111 284.596 75.4654 286.497C74.1595 286.933 73.2612 287.733 73.1385 288.735C72.9881 289.968 74.0447 291.181 75.7227 291.931C75.6297 292.157 75.6076 292.405 75.6594 292.643C75.8355 293.385 76.7773 293.844 78.0101 293.893H93.7704V293.879C94.0732 293.84 94.3007 293.711 94.3779 293.506C94.4012 293.432 94.4087 293.354 94.3998 293.277C94.391 293.2 94.366 293.126 94.3265 293.059C95.1456 292.98 95.761 292.664 95.9648 292.117C96.1211 291.696 96.0024 291.21 95.6759 290.734C97.803 290.592 99.4355 289.662 99.4909 288.464C99.5285 287.409 98.3412 286.451 96.6237 286.019Z" fill="#E4E4E4"/>
<path d="M129.386 279.414C131.61 277.326 132.627 274.945 131.761 273.268C130.674 271.192 127.043 270.874 123.167 272.336C123.365 271.831 123.548 271.312 123.717 270.777C125.783 264.191 124.604 257.96 121.082 256.86C117.649 255.785 113.26 259.985 111.127 266.297C109.36 259.062 104.825 253.963 100.936 254.878C97.2738 255.737 95.4811 261.623 96.6584 268.369C91.2942 265.998 86.1179 266.196 84.4696 269.045C82.762 271.996 85.4214 276.791 90.4888 280.283C88.0867 281.087 86.4345 282.557 86.2089 284.4C85.9299 286.666 87.875 288.899 90.9578 290.278C90.7865 290.692 90.7465 291.149 90.843 291.587C91.1636 292.952 92.8969 293.796 95.1625 293.885H124.141V293.859C124.699 293.786 125.114 293.551 125.257 293.174C125.3 293.038 125.314 292.894 125.298 292.752C125.282 292.611 125.235 292.474 125.162 292.352C126.669 292.206 127.803 291.611 128.175 290.617C128.464 289.845 128.246 288.95 127.645 288.075C131.559 287.812 134.57 286.099 134.661 283.899C134.75 281.968 132.552 280.214 129.386 279.414Z" fill="#F2F2F2"/>
<path d="M324.245 280.904C322.266 279.047 321.36 276.925 322.141 275.432C323.107 273.585 326.34 273.302 329.793 274.602C329.616 274.154 329.453 273.693 329.302 273.219C327.464 267.354 328.511 261.805 331.649 260.825C334.706 259.869 338.614 263.608 340.514 269.229C342.087 262.788 346.125 258.247 349.588 259.061C352.849 259.825 354.446 265.066 353.397 271.074C358.174 268.968 362.784 269.136 364.252 271.666C365.772 274.296 363.403 278.565 358.892 281.674C361.031 282.392 362.501 283.699 362.703 285.341C362.95 287.358 361.219 289.347 358.472 290.574C358.625 290.943 358.661 291.35 358.575 291.74C358.288 292.957 356.745 293.715 354.727 293.786H328.918V293.765C328.42 293.7 328.05 293.492 327.929 293.154C327.891 293.033 327.878 292.905 327.893 292.779C327.907 292.653 327.948 292.531 328.012 292.421C326.673 292.293 325.661 291.764 325.331 290.878C325.072 290.189 325.266 289.393 325.802 288.614C322.317 288.381 319.64 286.856 319.555 284.895C319.474 283.18 321.427 281.619 324.245 280.904Z" fill="#EAEAEA"/>
<path d="M353.7 288.606C352.908 287.856 352.534 286.998 352.851 286.396C353.247 285.649 354.547 285.534 355.942 286.06C355.871 285.878 355.803 285.69 355.744 285.499C355 283.128 355.425 280.888 356.692 280.491C357.926 280.106 359.505 281.615 360.273 283.887C360.908 281.285 362.541 279.45 363.94 279.778C365.258 280.088 365.903 282.206 365.479 284.632C367.408 283.782 369.272 283.841 369.864 284.875C370.479 285.937 369.522 287.662 367.699 288.918C368.564 289.209 369.158 289.736 369.239 290.4C369.34 291.216 368.645 292.018 367.529 292.514C367.591 292.663 367.605 292.828 367.571 292.986C367.456 293.478 366.833 293.776 366.017 293.812H355.588C355.506 293.81 355.426 293.786 355.356 293.742C355.286 293.699 355.23 293.638 355.192 293.565C355.177 293.516 355.172 293.465 355.178 293.414C355.183 293.363 355.2 293.315 355.225 293.271C354.683 293.217 354.276 293.004 354.143 292.646C354.099 292.489 354.094 292.324 354.128 292.164C354.163 292.005 354.236 291.856 354.341 291.732C352.932 291.637 351.852 291.02 351.816 290.228C351.773 289.525 352.562 288.895 353.7 288.606Z" fill="#E4E4E4"/>
<path d="M228.205 281.651C226.338 279.898 225.485 277.897 226.227 276.492C227.137 274.75 230.184 274.483 233.439 275.702C233.273 275.279 233.119 274.844 232.978 274.394C231.243 268.863 232.234 263.636 235.19 262.711C238.071 261.81 241.756 265.335 243.544 270.633C245.028 264.56 248.835 260.281 252.098 261.048C255.171 261.769 256.677 266.71 255.69 272.371C260.191 270.396 264.536 270.544 265.92 272.938C267.354 275.416 265.128 279.44 260.868 282.372C262.884 283.047 264.271 284.28 264.461 285.829C264.693 287.729 263.06 289.604 260.472 290.768C260.616 291.115 260.65 291.499 260.569 291.866C260.3 293.012 258.846 293.719 256.942 293.794H232.604V293.774C232.135 293.711 231.787 293.516 231.668 293.197C231.632 293.084 231.62 292.963 231.633 292.845C231.646 292.726 231.685 292.611 231.745 292.508C230.481 292.386 229.531 291.886 229.219 291.052C228.975 290.404 229.157 289.653 229.662 288.918C226.377 288.699 223.854 287.261 223.773 285.412C223.708 283.794 225.548 282.322 228.205 281.651Z" fill="#F2F2F2"/>
<path d="M255.215 286.919C254.157 285.932 253.674 284.796 254.091 283.998C254.608 283.01 256.333 282.86 258.175 283.555C258.083 283.314 257.996 283.067 257.914 282.814C256.925 279.683 257.493 276.72 259.169 276.196C260.799 275.687 262.887 277.682 263.9 280.683C264.741 277.243 266.898 274.819 268.746 275.254C270.487 275.663 271.34 278.462 270.78 281.669C273.33 280.544 275.79 280.633 276.573 281.989C277.387 283.393 276.122 285.673 273.712 287.323C274.854 287.706 275.639 288.403 275.746 289.28C275.879 290.357 274.955 291.418 273.489 292.074C273.57 292.271 273.589 292.488 273.544 292.696C273.39 293.346 272.567 293.747 271.49 293.788H257.708V293.777C257.598 293.777 257.491 293.746 257.397 293.689C257.303 293.631 257.228 293.549 257.178 293.451C257.157 293.385 257.15 293.316 257.157 293.248C257.165 293.18 257.188 293.114 257.224 293.055C256.507 292.986 255.967 292.704 255.791 292.232C255.653 291.864 255.757 291.441 256.042 291.023C254.182 290.898 252.752 290.084 252.708 289.047C252.667 288.134 253.709 287.301 255.215 286.919Z" fill="#E4E4E4"/>
<path d="M268.905 123.176C268.74 123.176 268.575 123.202 268.417 123.251C268.417 123.17 268.417 123.089 268.417 123.006C268.415 122.179 268.114 121.38 267.57 120.757C267.025 120.134 266.273 119.728 265.452 119.615C264.632 119.502 263.798 119.688 263.104 120.14C262.41 120.593 261.904 121.28 261.677 122.075C261.48 122.019 261.277 121.99 261.072 121.99C260.493 122.008 259.944 122.249 259.541 122.664C259.138 123.079 258.912 123.634 258.912 124.212C258.912 124.79 259.138 125.345 259.541 125.76C259.944 126.175 260.493 126.416 261.072 126.433H261.189H268.905C269.328 126.419 269.729 126.241 270.023 125.937C270.317 125.633 270.481 125.227 270.481 124.805C270.481 124.382 270.317 123.976 270.023 123.672C269.729 123.369 269.328 123.19 268.905 123.176Z" fill="#F2F2F2"/>
<path d="M208.95 85.7377C208.056 85.7375 207.179 85.9792 206.412 86.437C205.993 84.6362 204.92 83.0542 203.402 81.9962C201.883 80.9383 200.026 80.4794 198.188 80.708C197.196 78.4986 195.474 76.696 193.311 75.6009C191.148 74.5058 188.674 74.1846 186.303 74.6909C183.931 75.1972 181.805 76.5003 180.279 78.3827C178.754 80.2651 177.921 82.613 177.92 85.0344C177.92 85.0957 177.92 85.1589 177.92 85.2201C177.179 84.8711 176.369 84.6929 175.549 84.6987C174.73 84.7045 173.922 84.8942 173.186 85.2537C172.45 85.6132 171.804 86.1334 171.296 86.7757C170.789 87.418 170.432 88.1661 170.253 88.9645C170.074 89.7629 170.077 90.5913 170.262 91.3885C170.447 92.1856 170.809 92.931 171.321 93.5695C171.834 94.2081 172.483 94.7235 173.222 95.0776C173.961 95.4317 174.77 95.6155 175.59 95.6153H208.95C210.262 95.6153 211.521 95.095 212.448 94.1688C213.376 93.2426 213.897 91.9864 213.897 90.6765C213.897 89.3667 213.376 88.1104 212.448 87.1842C211.521 86.258 210.262 85.7377 208.95 85.7377Z" fill="#F2F2F2"/>
<path d="M158.099 203.305C158.687 203.304 159.264 203.464 159.769 203.765C160.02 202.683 160.632 201.717 161.503 201.025C162.375 200.334 163.456 199.957 164.569 199.957C164.772 199.958 164.975 199.971 165.177 199.996C165.829 198.542 166.961 197.356 168.384 196.635C169.807 195.915 171.435 195.703 172.995 196.036C174.555 196.369 175.954 197.226 176.958 198.465C177.961 199.703 178.509 201.248 178.509 202.841V202.965C178.989 202.737 179.513 202.619 180.045 202.62C180.984 202.642 181.877 203.03 182.533 203.701C183.19 204.372 183.557 205.272 183.557 206.21C183.557 207.148 183.19 208.049 182.533 208.72C181.877 209.391 180.984 209.779 180.045 209.801H158.099C157.672 209.801 157.248 209.717 156.854 209.553C156.459 209.39 156.101 209.151 155.798 208.849C155.496 208.548 155.257 208.19 155.093 207.796C154.93 207.402 154.846 206.979 154.846 206.553C154.846 206.126 154.93 205.704 155.093 205.31C155.257 204.916 155.496 204.558 155.798 204.256C156.101 203.955 156.459 203.716 156.854 203.552C157.248 203.389 157.672 203.305 158.099 203.305Z" fill="#F2F2F2"/>
<path d="M376.396 274.359L376.344 274.557C376.228 274.959 376.07 275.347 375.872 275.716C375.509 276.503 374.914 277.16 374.167 277.6C373.42 278.041 372.556 278.243 371.691 278.18C371.271 278.174 370.853 278.125 370.444 278.034L370.246 277.984L370.3 277.787C370.415 277.385 370.574 276.997 370.772 276.629C371.135 275.842 371.729 275.184 372.476 274.743C373.224 274.303 374.088 274.101 374.953 274.165C375.372 274.17 375.789 274.219 376.198 274.31L376.396 274.359ZM370.755 277.682C371.295 277.779 372.777 277.949 373.96 277.251C375.143 276.554 375.711 275.177 375.889 274.657C375.347 274.563 373.867 274.393 372.682 275.09C371.497 275.787 370.931 277.166 370.755 277.682Z" fill="#E4E4E4"/>
<path d="M373.579 279.084C371.697 279.793 369.6 278.855 369.6 278.855C369.6 278.855 370.553 276.767 372.437 276.06C374.321 275.352 376.416 276.289 376.416 276.289C376.416 276.289 375.453 278.377 373.579 279.084Z" fill="#F2F2F2"/>
<path d="M369.541 251.772V252.025C369.523 252.545 369.449 253.062 369.321 253.566C369.123 254.356 368.706 255.498 367.835 256.356C366.964 257.213 365.825 257.616 365.023 257.802C364.516 257.922 363.997 257.988 363.476 257.999H363.223V257.746C363.242 257.226 363.316 256.709 363.444 256.204C363.642 255.413 364.058 254.274 364.928 253.414C365.799 252.555 366.939 252.154 367.742 251.968C368.249 251.849 368.767 251.783 369.287 251.771L369.541 251.772ZM363.741 257.488C364.424 257.44 366.264 257.197 367.479 255.998C368.694 254.799 368.963 252.966 369.02 252.286C368.34 252.336 366.499 252.577 365.282 253.776C364.066 254.975 363.798 256.818 363.741 257.488Z" fill="#E4E4E4"/>
<path d="M367.567 258.33C365.509 259.754 362.693 259.256 362.693 259.256C362.693 259.256 363.214 256.449 365.266 255.024C367.318 253.6 370.139 254.098 370.139 254.098C370.139 254.098 369.623 256.905 367.567 258.33Z" fill="#F2F2F2"/>
<path d="M108.384 245.143L108.545 245.279C108.867 245.57 109.158 245.894 109.413 246.245C109.984 246.939 110.329 247.791 110.402 248.685C110.476 249.58 110.273 250.476 109.823 251.253C109.629 251.641 109.394 252.008 109.122 252.346L108.988 252.508L108.826 252.372C108.504 252.08 108.214 251.756 107.959 251.405C107.388 250.712 107.043 249.86 106.97 248.965C106.897 248.071 107.099 247.175 107.549 246.398C107.744 246.01 107.978 245.643 108.248 245.303L108.384 245.143ZM108.936 251.899C109.271 251.439 110.1 250.137 109.985 248.719C109.87 247.3 108.839 246.151 108.434 245.755C108.101 246.218 107.27 247.52 107.387 248.936C107.504 250.353 108.533 251.5 108.936 251.899Z" fill="#E4E4E4"/>
<path d="M111.523 249.904C111.325 251.978 109.506 253.507 109.506 253.507C109.506 253.507 107.989 251.672 108.179 249.599C108.369 247.527 110.193 245.996 110.193 245.996C110.193 245.996 111.711 247.837 111.523 249.904Z" fill="#F2F2F2"/>
<path d="M68.3457 269.1L68.5218 269.088C68.8868 269.073 69.2523 269.098 69.6121 269.161C70.3628 269.243 71.0706 269.552 71.6409 270.046C72.2112 270.54 72.6169 271.196 72.8037 271.927C72.9161 272.274 72.9905 272.632 73.0253 272.996L73.0392 273.171L72.8611 273.183C72.4962 273.198 72.1307 273.174 71.7708 273.112C71.0205 273.03 70.3131 272.721 69.7432 272.227C69.1733 271.733 68.7679 271.077 68.5812 270.346C68.4697 269.999 68.3947 269.641 68.3576 269.278L68.3457 269.1ZM72.6514 272.842C72.5821 272.369 72.315 271.099 71.4107 270.313C70.5064 269.527 69.2104 269.44 68.7315 269.436C68.8028 269.908 69.0699 271.178 69.9722 271.964C70.8745 272.751 72.1725 272.838 72.6514 272.842Z" fill="#E4E4E4"/>
<path d="M73.0382 270.131C74.1443 271.489 73.9444 273.48 73.9444 273.48C73.9444 273.48 71.9519 273.266 70.8478 271.899C69.7436 270.532 69.9415 268.541 69.9415 268.541C69.9415 268.541 71.9321 268.772 73.0382 270.131Z" fill="#F2F2F2"/>
<path d="M316.449 263.707H316.647C317.057 263.708 317.465 263.752 317.866 263.837C318.705 263.963 319.486 264.343 320.103 264.925C320.72 265.507 321.144 266.263 321.317 267.093C321.426 267.487 321.492 267.892 321.515 268.3V268.498H321.317C320.907 268.497 320.499 268.453 320.098 268.367C319.259 268.242 318.478 267.862 317.861 267.281C317.245 266.699 316.821 265.943 316.647 265.114C316.539 264.719 316.473 264.313 316.449 263.905V263.707ZM321.107 268.099C321.05 267.565 320.808 266.123 319.831 265.206C318.853 264.29 317.405 264.128 316.863 264.102C316.92 264.636 317.16 266.078 318.137 266.992C319.115 267.907 320.571 268.079 321.107 268.099Z" fill="#E4E4E4"/>
<path d="M321.663 265.076C322.85 266.656 322.525 268.871 322.525 268.871C322.525 268.871 320.301 268.541 319.124 266.968C317.947 265.396 318.263 263.171 318.263 263.171C318.263 263.171 320.485 263.501 321.663 265.076Z" fill="#F2F2F2"/>
<path d="M261.279 281.635H169.285L170.959 275.583L174.228 263.77L176.207 256.616L179.125 246.071L184.751 225.741L187.669 215.194L208.186 141.052H222.378L229.897 168.224L242.895 215.194L245.814 225.741L251.439 246.071L254.358 256.616L259.605 275.583L261.279 281.635Z" fill="#4656A1"/>
<path d="M261.279 281.635H169.285L170.959 275.585L174.228 263.772C238.338 259.991 229.897 168.226 229.897 168.226L259.605 275.585L261.279 281.635Z" fill="#38488C"/>
<path d="M280.102 281.635H150.463V293.94H280.102V281.635Z" fill="#38488C"/>
<path d="M261.279 281.635H169.285L170.959 275.584H259.605L261.279 281.635Z" fill="#232851"/>
<path d="M245.814 225.741C245.814 225.741 243.887 266.332 197.176 275.617L259.606 275.586L245.814 225.741Z" fill="#2B3872"/>
<path d="M245.815 225.741H184.752L187.671 215.194H242.896L245.815 225.741Z" fill="white"/>
<path d="M254.358 256.617H176.207L179.126 246.071H251.439L254.358 256.617Z" fill="white"/>
<path d="M250.107 281.635C250.107 281.635 232.924 294.586 169.277 293.94H280.095V281.635H250.107Z" fill="#2B3872"/>
<path d="M299.15 293.78H129.609C128.458 293.78 127.525 294.712 127.525 295.861V295.92C127.525 297.069 128.458 298 129.609 298H299.15C300.301 298 301.234 297.069 301.234 295.92V295.861C301.234 294.712 300.301 293.78 299.15 293.78Z" fill="#242850"/>
<path d="M132.823 293.78H105.369C104.218 293.78 103.285 294.712 103.285 295.861V295.92C103.285 297.069 104.218 298 105.369 298H132.823C133.974 298 134.907 297.069 134.907 295.92V295.861C134.907 294.712 133.974 293.78 132.823 293.78Z" fill="#242850"/>
<path d="M92.7807 293.78H63.9351C62.7844 293.78 61.8516 294.712 61.8516 295.861V295.92C61.8516 297.069 62.7844 298 63.9351 298H92.7807C93.9314 298 94.8643 297.069 94.8643 295.92V295.861C94.8643 294.712 93.9314 293.78 92.7807 293.78Z" fill="#242850"/>
<path d="M335.751 293.78H312.074C310.923 293.78 309.99 294.712 309.99 295.861V295.92C309.99 297.069 310.923 298 312.074 298H335.751C336.902 298 337.835 297.069 337.835 295.92V295.861C337.835 294.712 336.902 293.78 335.751 293.78Z" fill="#242850"/>
<path d="M366.705 293.78H348.695C347.544 293.78 346.611 294.712 346.611 295.861V295.92C346.611 297.069 347.544 298 348.695 298H366.705C367.856 298 368.789 297.069 368.789 295.92V295.861C368.789 294.712 367.856 293.78 366.705 293.78Z" fill="#242850"/>
</g>
<defs>
<clipPath id="clip0_7358_1429">
<rect width="446" height="298" fill="white"/>
</clipPath>
</defs>
</svg>
